<svg xmlns="http://www.w3.org/2000/svg" width="40" height="40" viewBox="0 0 40 40" fill-rule="evenodd" xmlns:v="https://vecta.io/nano"><path d="M32 32H8V8h24v24zm-.983-23h-22v22h22V9zM12 9.996c1.106 0 2.004.898 2.004 2.004s-.898 2.004-2.004 2.004S9.996 13.106 9.996 12 10.894 9.996 12 9.996zm0 8c1.106 0 2.004.898 2.004 2.004s-.898 2.004-2.004 2.004S9.996 21.106 9.996 20s.898-2.004 2.004-2.004zm0 8c1.106 0 2.004.898 2.004 2.004s-.898 2.004-2.004 2.004S9.996 29.106 9.996 28s.898-2.004 2.004-2.004zm8-16c1.106 0 2.004.898 2.004 2.004s-.898 2.004-2.004 2.004-2.004-.898-2.004-2.004.898-2.004 2.004-2.004zm0 8c1.106 0 2.004.898 2.004 2.004s-.898 2.004-2.004 2.004-2.004-.898-2.004-2.004.898-2.004 2.004-2.004zm0 8c1.106 0 2.004.898 2.004 2.004s-.898 2.004-2.004 2.004-2.004-.898-2.004-2.004.898-2.004 2.004-2.004zm8-16c1.106 0 2.004.898 2.004 2.004s-.898 2.004-2.004 2.004-2.004-.898-2.004-2.004.898-2.004 2.004-2.004zm0 8c1.106 0 2.004.898 2.004 2.004s-.898 2.004-2.004 2.004-2.004-.898-2.004-2.004.898-2.004 2.004-2.004zm0 8c1.106 0 2.004.898 2.004 2.004s-.898 2.004-2.004 2.004-2.004-.898-2.004-2.004.898-2.004 2.004-2.004z"></path></svg>