<svg xmlns="http://www.w3.org/2000/svg" width="100%" height="100%" viewBox="0 0 40 40" fill-rule="evenodd" stroke-linejoin="round" stroke-miterlimit="2" xmlns:v="https://vecta.io/nano"><path d="M32 32H8V8h24v24zM16.124 9H9l-.001 3.227 1.949 1.949L16.124 9zM18.5 9h-.962l-5.883 5.883 6.364 6.364 6.364-6.364L18.5 9zm11.766 0H19.914l5.176 5.176L30.266 9zM31 20.085V9.681l-5.203 5.202L31 20.085zm0 2.324v-.91l-5.91-5.909-6.364 6.364 6.364 6.364L31 22.409zM27.772 31H31v-7.177l-5.203 5.202L27.772 31zm-3.949 0h2.535l-1.268-1.268L23.823 31zM13.63 31h8.778l1.975-1.975-6.364-6.364-6.364 6.364L13.63 31zm-3.949 0h2.535l-1.267-1.268L9.681 31zM9 27.784v2.482l1.242-1.241L9 27.784zm0-10.246v8.832l1.949 1.948 6.364-6.364-6.364-6.364L9 17.538zm0-3.896v2.482l1.242-1.241L9 13.642z"/></svg>